<svg xmlns="http://www.w3.org/2000/svg" aria-hidden="true" style="position:absolute;width:0;height:0;overflow:hidden"><defs><symbol id="icon-fb" viewBox="0 0 34 32"><path fill="#fff" d="M16.951 27.851c7.54 0 13.652-5.644 13.652-12.606S24.491 2.639 16.951 2.639c-7.54 0-13.652 5.644-13.652 12.606s6.112 12.606 13.652 12.606z" style="fill:var(--color1, #fff)"/><path fill="#080809" d="M18.688 13.858a2.532 2.532 0 0 0-.682-.104c-.277 0-.874.176-.874.519v.82h1.417v1.38h-1.417v3.808h-1.428v-3.808h-.703v-1.38h.703v-.695c0-1.048.49-1.92 1.673-1.92.405 0 1.13.021 1.524.156l-.213 1.224z" style="fill:var(--color2, #080809)"/></symbol><symbol id="icon-instagram" viewBox="0 0 34 32"><path d="M17.124 28.27c7.718 0 13.976-5.777 13.976-12.904S24.843 2.462 17.124 2.462c-7.718 0-13.976 5.777-13.976 12.904S9.405 28.27 17.124 28.27z" style="fill:var(--color3, #000)"/><path fill="#fff" d="M20.948 10.491h-7.027c-.803 0-1.456.603-1.456 1.344v6.488c0 .741.653 1.344 1.456 1.344h7.027c.803 0 1.456-.603 1.456-1.344v-6.488c0-.741-.653-1.344-1.456-1.344zm.874 7.832c0 .445-.392.807-.873.807h-7.027c-.482 0-.873-.362-.873-.807v-6.488c0-.445.392-.806.873-.806h7.027c.482 0 .873.362.873.806v6.488z" style="fill:var(--color1, #fff)"/><path fill="#fff" d="M20.638 11.584c-.321 0-.582.241-.582.538s.261.538.582.538c.321 0 .582-.241.582-.538s-.261-.538-.582-.538zM17.435 12.659c-1.445 0-2.62 1.085-2.62 2.42s1.175 2.42 2.62 2.42 2.62-1.085 2.62-2.42-1.175-2.42-2.62-2.42zm0 4.302c-1.124 0-2.038-.844-2.038-1.882s.914-1.882 2.038-1.882c1.124 0 2.038.844 2.038 1.882s-.914 1.882-2.038 1.882z" style="fill:var(--color1, #fff)"/></symbol><symbol id="icon-twitter" viewBox="0 0 34 32"><path fill="#fff" d="M16.955 27.804c7.463 0 13.513-5.586 13.513-12.477S24.418 2.85 16.955 2.85 3.442 8.436 3.442 15.327s6.05 12.477 13.513 12.477z" style="fill:var(--color1, #fff)"/><path fill="#080809" d="M21.899 12.308c-.392.159-.81.264-1.246.315.448-.247.79-.635.951-1.103-.418.23-.879.393-1.371.483a2.254 2.254 0 0 0-1.579-.632c-1.197 0-2.161.897-2.161 1.997 0 .158.015.31.05.455-1.798-.081-3.388-.876-4.457-2.088a1.89 1.89 0 0 0-.296 1.009c0 .691.386 1.304.96 1.659a2.27 2.27 0 0 1-.977-.246v.022c0 .97.749 1.776 1.732 1.962a2.35 2.35 0 0 1-.567.066c-.138 0-.278-.007-.409-.034.28.791 1.075 1.372 2.02 1.391a4.583 4.583 0 0 1-2.681.852c-.177 0-.347-.007-.517-.027.958.57 2.093.896 3.317.896 3.979 0 6.154-3.043 6.154-5.681 0-.088-.003-.174-.008-.258.429-.281.79-.632 1.084-1.037z" style="fill:var(--color2, #080809)"/></symbol></defs></svg>