<svg xmlns="http://www.w3.org/2000/svg" aria-hidden="true" style="position:absolute;width:0;height:0;overflow:hidden"><defs>
	<symbol id="icon-facebook-1" viewBox="0 0 17 32"><path d="M14.91 6.409c-.827-.242-1.778-.403-2.646-.403-1.075 0-3.391.684-3.391 2.013V11.2h5.5v5.355h-5.5v14.776H3.332V16.555H.603V11.2h2.729V8.502c0-4.067 1.902-7.449 6.492-7.449 1.571 0 4.383.081 5.913.604l-.827 4.751z"/></symbol>

<symbol id="icon-instagram-1" viewBox="0 0 35 32"><path fill="#fff" d="M29.954.102H5.595C2.813.102.548 2.193.548 4.762v22.492c0 2.57 2.264 4.66 5.047 4.66h24.359c2.783 0 5.047-2.09 5.047-4.66V4.762c0-2.569-2.264-4.66-5.047-4.66zm3.028 27.151c0 1.542-1.359 2.796-3.028 2.796H5.595c-1.669 0-3.028-1.254-3.028-2.796V4.761c0-1.541 1.359-2.796 3.028-2.796h24.359c1.669 0 3.028 1.254 3.028 2.796v22.492z" style="fill:var(--color1, #fff)"/><path fill="#fff" d="M28.877 3.892c-1.113 0-2.019.836-2.019 1.864s.906 1.864 2.019 1.864 2.019-.836 2.019-1.864-.906-1.864-2.019-1.864zM17.774 7.62c-5.009 0-9.084 3.763-9.084 8.388s4.075 8.388 9.084 8.388c5.009 0 9.084-3.763 9.084-8.388S22.783 7.62 17.774 7.62zm0 14.911c-3.896 0-7.065-2.926-7.065-6.524s3.169-6.524 7.065-6.524c3.896 0 7.066 2.926 7.066 6.524s-3.169 6.524-7.066 6.524z" style="fill:var(--color1, #fff)"/></symbol>

<symbol id="icon-twitter-1" viewBox="0 0 42 32"><path d="M40.696 4.544A18.069 18.069 0 0 1 36 5.732c1.689-.931 2.979-2.395 3.585-4.159a17.105 17.105 0 0 1-5.168 1.821c-1.496-1.47-3.627-2.381-5.953-2.381-4.512 0-8.144 3.381-8.144 7.527 0 .596.055 1.17.189 1.716-6.775-.305-12.771-3.303-16.798-7.871-.703 1.126-1.116 2.416-1.116 3.804 0 2.606 1.453 4.916 3.62 6.254a8.566 8.566 0 0 1-3.682-.927v.083c0 3.657 2.825 6.694 6.529 7.394a8.743 8.743 0 0 1-2.137.248c-.522 0-1.048-.028-1.543-.128 1.056 2.98 4.052 5.171 7.615 5.242-2.773 2.003-6.293 3.209-10.105 3.209-.668 0-1.309-.028-1.95-.103 3.61 2.15 7.888 3.377 12.502 3.377 14.997 0 23.196-11.47 23.196-21.413 0-.333-.012-.654-.03-.973a15.644 15.644 0 0 0 4.085-3.907z"/></symbol>

<symbol id="icon-facebook" viewBox="0 0 32 32"><path d="M19 6h5V0h-5c-3.86 0-7 3.14-7 7v3H8v6h4v16h6V16h5l1-6h-6V7c0-.542.458-1 1-1z"/></symbol>

<symbol id="icon-instagram" viewBox="0 0 32 32"><path d="M16 2.881c4.275 0 4.781.019 6.462.094 1.563.069 2.406.331 2.969.55a4.952 4.952 0 0 1 1.837 1.194 5.015 5.015 0 0 1 1.2 1.838c.219.563.481 1.412.55 2.969.075 1.688.094 2.194.094 6.463s-.019 4.781-.094 6.463c-.069 1.563-.331 2.406-.55 2.969a4.94 4.94 0 0 1-1.194 1.837 5.02 5.02 0 0 1-1.837 1.2c-.563.219-1.413.481-2.969.55-1.688.075-2.194.094-6.463.094s-4.781-.019-6.463-.094c-1.563-.069-2.406-.331-2.969-.55a4.952 4.952 0 0 1-1.838-1.194 5.02 5.02 0 0 1-1.2-1.837c-.219-.563-.481-1.413-.55-2.969-.075-1.688-.094-2.194-.094-6.463s.019-4.781.094-6.463c.069-1.563.331-2.406.55-2.969a4.964 4.964 0 0 1 1.194-1.838 5.015 5.015 0 0 1 1.838-1.2c.563-.219 1.412-.481 2.969-.55 1.681-.075 2.188-.094 6.463-.094zM16 0c-4.344 0-4.887.019-6.594.094-1.7.075-2.869.35-3.881.744-1.056.412-1.95.956-2.837 1.85a7.833 7.833 0 0 0-1.85 2.831C.444 6.538.169 7.7.094 9.4.019 11.113 0 11.656 0 16s.019 4.887.094 6.594c.075 1.7.35 2.869.744 3.881.413 1.056.956 1.95 1.85 2.837a7.82 7.82 0 0 0 2.831 1.844c1.019.394 2.181.669 3.881.744 1.706.075 2.25.094 6.594.094s4.888-.019 6.594-.094c1.7-.075 2.869-.35 3.881-.744 1.05-.406 1.944-.956 2.831-1.844s1.438-1.781 1.844-2.831c.394-1.019.669-2.181.744-3.881.075-1.706.094-2.25.094-6.594s-.019-4.887-.094-6.594c-.075-1.7-.35-2.869-.744-3.881a7.506 7.506 0 0 0-1.831-2.844A7.82 7.82 0 0 0 26.482.843C25.463.449 24.301.174 22.601.099c-1.712-.081-2.256-.1-6.6-.1z"/><path d="M16 7.781c-4.537 0-8.219 3.681-8.219 8.219s3.681 8.219 8.219 8.219 8.219-3.681 8.219-8.219A8.221 8.221 0 0 0 16 7.781zm0 13.55a5.331 5.331 0 1 1 0-10.663 5.331 5.331 0 0 1 0 10.663zM26.462 7.456a1.919 1.919 0 1 1-3.838 0 1.919 1.919 0 0 1 3.838 0z"/></symbol>

<symbol id="icon-twitter" viewBox="0 0 32 32"><path d="M32 7.075a12.941 12.941 0 0 1-3.769 1.031 6.601 6.601 0 0 0 2.887-3.631 13.21 13.21 0 0 1-4.169 1.594A6.565 6.565 0 0 0 22.155 4a6.563 6.563 0 0 0-6.563 6.563c0 .512.056 1.012.169 1.494A18.635 18.635 0 0 1 2.23 5.195a6.56 6.56 0 0 0-.887 3.3 6.557 6.557 0 0 0 2.919 5.463 6.565 6.565 0 0 1-2.975-.819v.081a6.565 6.565 0 0 0 5.269 6.437 6.574 6.574 0 0 1-2.968.112 6.588 6.588 0 0 0 6.131 4.563 13.17 13.17 0 0 1-9.725 2.719 18.568 18.568 0 0 0 10.069 2.95c12.075 0 18.681-10.006 18.681-18.681 0-.287-.006-.569-.019-.85A13.216 13.216 0 0 0 32 7.076z"/></symbol></defs></svg>